<svg width="40" height="40" viewBox="0 0 40 40" fill="none" xmlns="http://www.w3.org/2000/svg">
<path d="M0 20C0 8.95431 8.95431 0 20 0V0C31.0457 0 40 8.95431 40 20V20C40 31.0457 31.0457 40 20 40V40C8.95431 40 0 31.0457 0 20V20Z" fill="#CD6326"/>
<path d="M20.81 7.95129C13.76 7.95129 10.205 13.0063 10.205 17.2213C10.205 19.7763 11.1737 22.045 13.2437 22.89C13.585 23.03 13.8887 22.8963 13.9875 22.5213C14.0562 22.26 14.2175 21.6 14.2912 21.3263C14.3925 20.9575 14.3525 20.8263 14.08 20.5013C13.4812 19.7975 13.1 18.8813 13.1 17.59C13.1 13.84 15.905 10.4838 20.4062 10.4838C24.3925 10.4838 26.5825 12.9225 26.5825 16.17C26.5825 20.45 24.6875 24.06 21.8762 24.06C20.3225 24.06 19.1612 22.7763 19.535 21.2013C19.9812 19.3175 20.845 17.29 20.845 15.935C20.845 14.72 20.1912 13.7088 18.845 13.7088C17.2587 13.7088 15.9812 15.3488 15.9812 17.5488C15.9812 18.95 16.4575 19.8975 16.4575 19.8975C16.4575 19.8975 14.8312 26.7788 14.5475 27.9838C13.9812 30.3838 14.4625 33.3275 14.5062 33.625C14.5275 33.7988 14.755 33.8438 14.8562 33.71C15.0025 33.5188 16.895 31.1813 17.535 28.8513C17.72 28.1913 18.58 24.7763 18.58 24.7763C19.0987 25.7575 20.6012 26.6225 22.205 26.6225C26.9762 26.6225 30.2112 22.2763 30.2112 16.4513C30.2062 12.0513 26.4775 7.95129 20.8112 7.95129H20.81Z" fill="#F7F7F7"/>
</svg>
